# xmcd CD database file
#
# Track frame offsets:
#	150
#	13394
#	22476
#	34376
#	45678
#	67436
#	80088
#	97824
#	107839
#	118565
#	132144
#	147331
#	164708
#	179372
#	188723
#
# Disc length: 2850 seconds
#
# Revision: 0
# Processed by: cddbd v1.5.2PL0 Copyright (c) Steve Scherf et al.
# Submitted via: NeoAudio 9.9.9
#
DISCID=e50b200f
DTITLE=LPG - With The Earth Above Me
DYEAR=2005
DGENRE=Salsa
TTITLE0=Kiss My Hope
TTITLE1=Therefore
TTITLE2=Lethargy
TTITLE3=We Don't Understand
TTITLE4=Opera
TTITLE5=I Amsterdam
TTITLE6=Daylight Human Beings
TTITLE7=Billy
TTITLE8=This is Your Power
TTITLE9=Hills
TTITLE10=I Don't Belong Here
TTITLE11=Peter Icon
TTITLE12=Kicking
TTITLE13=F to the J
TTITLE14=With the Earth Above Me
EXTD=YEAR: 2005
EXTT0=
EXTT1=
EXTT2=
EXTT3=
EXTT4=
EXTT5=
EXTT6=
EXTT7=
EXTT8=
EXTT9=
EXTT10=
EXTT11=
EXTT12=
EXTT13=
EXTT14=
PLAYORDER=
